# xmcd
#
# Track frame offsets:
#	150
#	13785
#	30815
#	47045
#	64312
#	81740
#	95155
#	112847
#	128955
#	146367
#	165945
#	179350
#
# Disc length: 2627 seconds
#
# Revision: 2
# Processed by: cddbd v1.5.2PL0 Copyright (c) Steve Scherf et al.
# Submitted via: audiograbber 1.83.01
#
DISCID=9b0a410c
DTITLE=Blue County - Blue County
DYEAR=2004
DGENRE=Country
TTITLE0=Good little girls
TTITLE1=That summer song
TTITLE2=That's cool
TTITLE3=Hollywood, California
TTITLE4=Sunday driver
TTITLE5=What's not to love
TTITLE6=Sounds like home
TTITLE7=Nothin' but cowboy boots
TTITLE8=Time well spent
TTITLE9=Ride on
TTITLE10=Losing at loving
TTITLE11=Walk on water
EXTD=
EXTT0=
EXTT1=
EXTT2=
EXTT3=
EXTT4=
EXTT5=
EXTT6=
EXTT7=
EXTT8=
EXTT9=
EXTT10=
EXTT11=
PLAYORDER=
